<?xml version="1.0" encoding="utf-8"?>
<!-- Generator: Adobe Illustrator 19.2.1, SVG Export Plug-In . SVG Version: 6.00 Build 0)  -->
<svg version="1.1" id="Layer_1" xmlns="http://www.w3.org/2000/svg" xmlns:xlink="http://www.w3.org/1999/xlink" x="0px" y="0px"
	 viewBox="0 0 21 22" style="enable-background:new 0 0 21 22;" xml:space="preserve">
<g transform="translate(-237 -622)">
	<g>
		<path id="air-a" d="M238.6,633.8c-1-0.2-1.6-0.5-1.6-0.8c0-0.3,0.5-0.5,1.6-0.8l-1.3-2.6h0.7c0.3,0,0.7,0.2,0.9,0.4l1.5,1.9
			c1.5-0.2,3.6-0.3,6.2-0.4l-2.2-9.5c0.7-0.3,1.6,0,2,0.7l4.6,8.6c1.2,0,2.4,0,3.7,0c1.7,0,3.3,0.6,3.3,1.6c0,1-1.6,1.6-3.3,1.6
			c-6.6,0-11.5-0.2-14.4-0.5l-1.5,1.9c-0.2,0.3-0.5,0.4-0.9,0.4h-0.7L238.6,633.8z M246.3,635.4l-1.9,8.5c0.7,0.3,1.6,0,2-0.7
			l4.1-7.7L246.3,635.4z"/>
	</g>
</g>
</svg>
