<?xml version="1.0" encoding="utf-8"?>
<!-- Generator: Adobe Illustrator 19.2.1, SVG Export Plug-In . SVG Version: 6.00 Build 0)  -->
<svg version="1.1" id="Layer_1" xmlns="http://www.w3.org/2000/svg" xmlns:xlink="http://www.w3.org/1999/xlink" x="0px" y="0px"
	 viewBox="0 0 23 19" style="enable-background:new 0 0 23 19;" xml:space="preserve">
<g transform="translate(-409 -625)">
	<g>
		<path id="customs-a" d="M411.1,642v2h20.8l0.2-10.4c0-0.8-0.6-1.4-1.4-1.4h0h-0.2l-5.8,8.7h4.2v1H411.1z M411.1,631.9h-1
			c-0.6,0-1,0.5-1,1v8.1c0,0.6,0.5,1,1,1h1V631.9z M428.2,627.4H424h-0.5l-1.2,1.2h1.2v0.3c0,1.4,1.2,2.5,2.6,2.5
			c1.4,0,2.6-1.1,2.6-2.5v-1.5H428.2z M428.7,626.6h-5.3l-1.1-1.6h6.4V626.6z M428.4,632.3h-6.1h-0.6v0c-0.3,0-0.6,0.1-0.8,0.4
			c-1.8,2.2-3.6,4.4-5.4,6.6c-1,1.2,0.7,2.9,1.7,1.7c1.7-2.1,3.4-4.2,5.1-6.3l0.2,6.3L428.4,632.3z"/>
	</g>
</g>
</svg>
