<?xml version="1.0" encoding="UTF-8"?>
<svg width="23px" height="22px" viewBox="0 0 23 22" version="1.1" xmlns="http://www.w3.org/2000/svg" xmlns:xlink="http://www.w3.org/1999/xlink">
    <!-- Generator: Sketch 45.1 (43504) - http://www.bohemiancoding.com/sketch -->
    <title>facebook</title>
    <desc>Created with Sketch.</desc>
    <defs>
        <path d="M345.606571,515 L326.467557,515 C325.678319,515 325.086391,515.594595 325.086391,516.387387 L325.086391,535.612613 C325.086391,536.405405 325.678319,537 326.467557,537 L335.938409,537 L335.938409,529.171171 L333.965315,529.171171 C333.669351,529.171171 333.472041,528.972973 333.472041,528.675676 L333.472041,526.099099 C333.472041,525.801802 333.669351,525.603604 333.965315,525.603604 L335.938409,525.603604 L335.938409,523.225225 C335.938409,520.351351 337.714194,518.864865 340.180562,518.864865 L342.252311,518.864865 C342.548275,518.864865 342.745584,519.063063 342.745584,519.36036 L342.745584,521.540541 C342.844239,521.738739 342.548275,521.936937 342.350965,521.936937 L341.068454,521.936937 C339.687288,521.936937 339.391324,522.630631 339.391324,523.522523 L339.391324,525.603604 L342.44962,525.603604 C342.745584,525.603604 342.942893,525.900901 342.942893,526.099099 L342.646929,528.675676 C342.646929,528.873874 342.44962,529.072072 342.153656,529.072072 L339.489979,529.072072 L339.489979,536.900901 L345.705225,536.900901 C346.494463,536.900901 347.086391,536.306306 347.086391,535.513514 L347.086391,516.387387 C346.987737,515.594595 346.395808,515 345.606571,515" id="path-1"></path>
    </defs>
    <g id="Guide" stroke="none" stroke-width="1" fill="none" fill-rule="evenodd">
        <g id="icons" transform="translate(-325.000000, -515.000000)">
            <mask id="mask-2" fill="white">
                <use xlink:href="#path-1"></use>
            </mask>
            <use id="facebook" fill="#000000" xlink:href="#path-1"></use>
        </g>
    </g>
</svg>