<?xml version="1.0" encoding="UTF-8"?>
<svg width="23px" height="22px" viewBox="0 0 23 22" version="1.1" xmlns="http://www.w3.org/2000/svg" xmlns:xlink="http://www.w3.org/1999/xlink">
    <!-- Generator: Sketch 45.1 (43504) - http://www.bohemiancoding.com/sketch -->
    <title>linkedin</title>
    <desc>Created with Sketch.</desc>
    <defs>
        <path d="M283.617923,533.432432 L280.347652,533.432432 L280.347652,528.081081 C280.347652,526.792793 279.852157,525.801802 278.662968,525.801802 C277.771076,525.801802 277.176481,526.396396 276.978283,526.990991 C276.879184,527.189189 276.879184,527.486486 276.879184,527.783784 L276.879184,533.333333 L273.509815,533.333333 L273.509815,523.423423 L276.780085,523.423423 L276.780085,524.90991 C277.176481,524.216216 277.969274,523.225225 279.753058,523.225225 C281.933238,523.225225 283.518824,524.612613 283.518824,527.684685 L283.518824,533.432432 L283.617923,533.432432 Z M270.041346,522.135135 L270.041346,522.135135 C268.951256,522.135135 268.158463,521.342342 268.158463,520.45045 C268.158463,519.459459 268.852157,518.765766 270.041346,518.765766 C271.131436,518.765766 271.82513,519.558559 271.924229,520.45045 C271.924229,521.342342 271.230535,522.135135 270.041346,522.135135 L270.041346,522.135135 Z M268.455761,533.432432 L271.726031,533.432432 L271.726031,523.522523 L268.455761,523.522523 L268.455761,533.432432 Z M285.699004,515 L266.473779,515 C265.680986,515 265.086391,515.594595 265.086391,516.387387 L265.086391,535.612613 C265.086391,536.405405 265.680986,537 266.473779,537 L285.699004,537 C286.491797,537 287.086391,536.405405 287.086391,535.612613 L287.086391,516.387387 C287.086391,515.594595 286.491797,515 285.699004,515 L285.699004,515 Z" id="path-1"></path>
    </defs>
    <g id="Guide" stroke="none" stroke-width="1" fill="none" fill-rule="evenodd">
        <g id="icons" transform="translate(-265.000000, -515.000000)">
            <mask id="mask-2" fill="white">
                <use xlink:href="#path-1"></use>
            </mask>
            <use id="linkedin" fill="#000000" xlink:href="#path-1"></use>
        </g>
    </g>
</svg>