<?xml version="1.0" encoding="utf-8"?>
<!-- Generator: Adobe Illustrator 19.2.1, SVG Export Plug-In . SVG Version: 6.00 Build 0)  -->
<svg version="1.1" id="Layer_1" xmlns="http://www.w3.org/2000/svg" xmlns:xlink="http://www.w3.org/1999/xlink" x="0px" y="0px"
	 viewBox="0 0 27 14" style="enable-background:new 0 0 27 14;" xml:space="preserve">
<g transform="translate(-277 -625)">
	<g>
		<path id="ocean-a" d="M303,633c0.9,0,1.3,1,0.8,1.6l-3.6,4.4h-21.6l-1.5-4.7c-0.2-0.6,0.3-1.3,1-1.3H303z M283.1,625
			c0.6,0,1,0.4,1,1v6h-5v-6c0-0.6,0.4-1,1-1H283.1z M292.1,628c0.6,0,1,0.4,1,1v3h-8v-3c0-0.6,0.4-1,1-1H292.1z M301.1,628
			c0.6,0,1,0.4,1,1v3h-8v-3c0-0.6,0.4-1,1-1H301.1z"/>
	</g>
</g>
</svg>
