<?xml version="1.0" encoding="UTF-8"?>
<svg width="23px" height="22px" viewBox="0 0 23 22" version="1.1" xmlns="http://www.w3.org/2000/svg" xmlns:xlink="http://www.w3.org/1999/xlink">
    <!-- Generator: Sketch 45.1 (43504) - http://www.bohemiancoding.com/sketch -->
    <title>twitter</title>
    <desc>Created with Sketch.</desc>
    <defs>
        <path d="M252.428734,523.126126 L252.428734,523.522523 C252.428734,527.684685 249.257562,532.441441 243.509815,532.441441 C241.726031,532.441441 240.041346,531.945946 238.653959,531.054054 L239.446752,531.054054 C240.933238,531.054054 242.320625,530.558559 243.311616,529.666667 C241.924229,529.666667 240.73504,528.774775 240.338643,527.486486 C240.536842,527.486486 240.73504,527.585586 240.933238,527.585586 C241.230535,527.585586 241.527833,527.585586 241.726031,527.486486 C240.437743,527.189189 239.347652,525.900901 239.347652,524.414414 C239.744049,524.612613 240.239544,524.810811 240.73504,524.810811 C239.843148,524.216216 239.347652,523.225225 239.347652,522.135135 C239.347652,521.540541 239.545851,521.045045 239.744049,520.54955 C241.329634,522.432432 243.608914,523.720721 246.284589,523.81982 C246.18549,523.621622 246.18549,523.324324 246.18549,523.126126 C246.18549,521.342342 247.572878,519.954955 249.356661,519.954955 C250.248553,519.954955 251.041346,520.351351 251.635941,520.945946 C252.329634,520.846847 253.023328,520.54955 253.617923,520.153153 C253.419725,520.945946 252.924229,521.540541 252.230535,521.936937 C252.924229,521.936937 253.518824,521.738739 254.014319,521.441441 C253.617923,522.135135 253.122427,522.630631 252.428734,523.126126 M255.699004,515 L236.473779,515 C235.680986,515 235.086391,515.594595 235.086391,516.387387 L235.086391,535.612613 C235.086391,536.405405 235.680986,537 236.473779,537 L255.699004,537 C256.491797,537 257.086391,536.405405 257.086391,535.612613 L257.086391,516.387387 C257.086391,515.594595 256.491797,515 255.699004,515" id="path-1"></path>
    </defs>
    <g id="Guide" stroke="none" stroke-width="1" fill="none" fill-rule="evenodd">
        <g id="icons" transform="translate(-235.000000, -515.000000)">
            <mask id="mask-2" fill="white">
                <use xlink:href="#path-1"></use>
            </mask>
            <use id="twitter" fill="#000000" xlink:href="#path-1"></use>
        </g>
    </g>
</svg>